name rise49.25peak52.1432fall72.8391.mot
datacolumns 19
datarows 30
range 7.79163600000000 7.83996400000000
endheader
time	ground_force1_vx	ground_force1_vy	ground_force1_vz	ground_force1_px	ground_force1_py	ground_force1_pz	ground_force2_vx	ground_force2_vy	ground_force2_vz	ground_force2_px	ground_force2_py	ground_force2_pz	ground_torque1_x	ground_torque1_y	ground_torque1_z	ground_torque2_x	ground_torque2_y	ground_torque2_z	
7.79163600000000	8.48428900000000	732.24712299999999	46.07411600000000	0.21509100000000	0.00000000000000	0.12987100000000	0.00000000000000	0.00000000000000	0.00000000000000	0.00000000000000	0.00000000000000	0.00000000000000	0.00000000000000	17.87632200000000	0.00000000000000	0.00000000000000	0.00000000000000	0.00000000000000	
7.79330500000000	8.16064900000000	733.10689600000001	46.03181500000000	0.21419400000000	0.00000000000000	0.12984600000000	0.00000000000000	0.00000000000000	0.00000000000000	0.00000000000000	0.00000000000000	0.00000000000000	0.00000000000000	17.88827500000000	0.00000000000000	0.00000000000000	0.00000000000000	0.00000000000000	
7.79497200000000	7.82726300000000	733.96946100000002	45.99173900000000	0.21328100000000	0.00000000000000	0.12982200000000	0.00000000000000	0.00000000000000	0.00000000000000	0.00000000000000	0.00000000000000	0.00000000000000	0.00000000000000	17.90317000000000	0.00000000000000	0.00000000000000	0.00000000000000	0.00000000000000	
7.79663600000000	7.48416600000000	734.83378100000004	45.95368900000000	0.21235200000000	0.00000000000000	0.12979800000000	0.00000000000000	0.00000000000000	0.00000000000000	0.00000000000000	0.00000000000000	0.00000000000000	0.00000000000000	17.92095200000000	0.00000000000000	0.00000000000000	0.00000000000000	0.00000000000000	
7.79830300000000	7.13142000000000	735.69889200000000	45.91747500000000	0.21141000000000	0.00000000000000	0.12977500000000	0.00000000000000	0.00000000000000	0.00000000000000	0.00000000000000	0.00000000000000	0.00000000000000	0.00000000000000	17.94157100000000	0.00000000000000	0.00000000000000	0.00000000000000	0.00000000000000	
7.79997200000000	6.76911200000000	736.56390199999998	45.88291400000000	0.21045400000000	0.00000000000000	0.12975300000000	0.00000000000000	0.00000000000000	0.00000000000000	0.00000000000000	0.00000000000000	0.00000000000000	0.00000000000000	17.96497400000000	0.00000000000000	0.00000000000000	0.00000000000000	0.00000000000000	
7.80163400000000	6.39735300000000	737.42799400000001	45.84982900000000	0.20948800000000	0.00000000000000	0.12973100000000	0.00000000000000	0.00000000000000	0.00000000000000	0.00000000000000	0.00000000000000	0.00000000000000	0.00000000000000	17.99111100000000	0.00000000000000	0.00000000000000	0.00000000000000	0.00000000000000	
7.80330200000000	6.01628200000000	738.29042300000003	45.81805400000000	0.20851200000000	0.00000000000000	0.12971000000000	0.00000000000000	0.00000000000000	0.00000000000000	0.00000000000000	0.00000000000000	0.00000000000000	0.00000000000000	18.01993200000000	0.00000000000000	0.00000000000000	0.00000000000000	0.00000000000000	
7.80496900000000	5.62605500000000	739.15051800000003	45.78742800000000	0.20752900000000	0.00000000000000	0.12968900000000	0.00000000000000	0.00000000000000	0.00000000000000	0.00000000000000	0.00000000000000	0.00000000000000	0.00000000000000	18.05138600000000	0.00000000000000	0.00000000000000	0.00000000000000	0.00000000000000	
7.80663500000000	5.22685200000000	740.00768000000005	45.75780200000000	0.20653900000000	0.00000000000000	0.12966800000000	0.00000000000000	0.00000000000000	0.00000000000000	0.00000000000000	0.00000000000000	0.00000000000000	0.00000000000000	18.08542600000000	0.00000000000000	0.00000000000000	0.00000000000000	0.00000000000000	
7.80829800000000	4.81887100000000	740.86138300000005	45.72903400000000	0.20554400000000	0.00000000000000	0.12964800000000	0.00000000000000	0.00000000000000	0.00000000000000	0.00000000000000	0.00000000000000	0.00000000000000	0.00000000000000	18.12200000000000	0.00000000000000	0.00000000000000	0.00000000000000	0.00000000000000	
7.80996500000000	4.40232700000000	741.71117200000003	45.70099600000000	0.20454600000000	0.00000000000000	0.12962700000000	0.00000000000000	0.00000000000000	0.00000000000000	0.00000000000000	0.00000000000000	0.00000000000000	0.00000000000000	18.16106100000000	0.00000000000000	0.00000000000000	0.00000000000000	0.00000000000000	
7.81163300000000	3.97745400000000	742.55665999999997	45.67356500000000	0.20354600000000	0.00000000000000	0.12960700000000	0.00000000000000	0.00000000000000	0.00000000000000	0.00000000000000	0.00000000000000	0.00000000000000	0.00000000000000	18.20255800000000	0.00000000000000	0.00000000000000	0.00000000000000	0.00000000000000	
7.81330100000000	3.54449700000000	743.39752899999996	45.64663200000000	0.20254700000000	0.00000000000000	0.12958700000000	0.00000000000000	0.00000000000000	0.00000000000000	0.00000000000000	0.00000000000000	0.00000000000000	0.00000000000000	18.24644100000000	0.00000000000000	0.00000000000000	0.00000000000000	0.00000000000000	
7.81496400000000	3.10371700000000	744.23352499999999	45.62009800000000	0.20154900000000	0.00000000000000	0.12956700000000	0.00000000000000	0.00000000000000	0.00000000000000	0.00000000000000	0.00000000000000	0.00000000000000	0.00000000000000	18.29266100000000	0.00000000000000	0.00000000000000	0.00000000000000	0.00000000000000	
7.81663200000000	2.65538600000000	745.06446200000005	45.59387500000000	0.20055500000000	0.00000000000000	0.12954700000000	0.00000000000000	0.00000000000000	0.00000000000000	0.00000000000000	0.00000000000000	0.00000000000000	0.00000000000000	18.34116600000000	0.00000000000000	0.00000000000000	0.00000000000000	0.00000000000000	
7.81830000000000	2.19978500000000	745.89021100000002	45.56788800000000	0.19956500000000	0.00000000000000	0.12952700000000	0.00000000000000	0.00000000000000	0.00000000000000	0.00000000000000	0.00000000000000	0.00000000000000	0.00000000000000	18.39190500000000	0.00000000000000	0.00000000000000	0.00000000000000	0.00000000000000	
7.81997800000000	1.73720500000000	746.71070599999996	45.54207100000000	0.19858100000000	0.00000000000000	0.12950700000000	0.00000000000000	0.00000000000000	0.00000000000000	0.00000000000000	0.00000000000000	0.00000000000000	0.00000000000000	18.44482400000000	0.00000000000000	0.00000000000000	0.00000000000000	0.00000000000000	
7.82163800000000	1.26794500000000	747.52593300000001	45.51637300000000	0.19760400000000	0.00000000000000	0.12948700000000	0.00000000000000	0.00000000000000	0.00000000000000	0.00000000000000	0.00000000000000	0.00000000000000	0.00000000000000	18.49987000000000	0.00000000000000	0.00000000000000	0.00000000000000	0.00000000000000	
7.82330400000000	0.79230700000000	748.33593599999995	45.49075200000000	0.19663600000000	0.00000000000000	0.12946600000000	0.00000000000000	0.00000000000000	0.00000000000000	0.00000000000000	0.00000000000000	0.00000000000000	0.00000000000000	18.55698800000000	0.00000000000000	0.00000000000000	0.00000000000000	0.00000000000000	
7.82497200000000	0.31060200000000	749.14080500000000	45.46518100000000	0.19567700000000	0.00000000000000	0.12944500000000	0.00000000000000	0.00000000000000	0.00000000000000	0.00000000000000	0.00000000000000	0.00000000000000	0.00000000000000	18.61611900000000	0.00000000000000	0.00000000000000	0.00000000000000	0.00000000000000	
7.82663700000000	-0.17685800000000	749.94068000000004	45.43964500000000	0.19472900000000	0.00000000000000	0.12942400000000	0.00000000000000	0.00000000000000	0.00000000000000	0.00000000000000	0.00000000000000	0.00000000000000	0.00000000000000	18.67720600000000	0.00000000000000	0.00000000000000	0.00000000000000	0.00000000000000	
7.82830600000000	-0.66975800000000	750.73574299999996	45.41413900000000	0.19379200000000	0.00000000000000	0.12940200000000	0.00000000000000	0.00000000000000	0.00000000000000	0.00000000000000	0.00000000000000	0.00000000000000	0.00000000000000	18.74018800000000	0.00000000000000	0.00000000000000	0.00000000000000	0.00000000000000	
7.82996800000000	-1.16778300000000	751.52621699999997	45.38867500000000	0.19286800000000	0.00000000000000	0.12938100000000	0.00000000000000	0.00000000000000	0.00000000000000	0.00000000000000	0.00000000000000	0.00000000000000	0.00000000000000	18.80500200000000	0.00000000000000	0.00000000000000	0.00000000000000	0.00000000000000	
7.83163600000000	-1.67061500000000	752.31236000000001	45.36327200000000	0.19195700000000	0.00000000000000	0.12935900000000	0.00000000000000	0.00000000000000	0.00000000000000	0.00000000000000	0.00000000000000	0.00000000000000	0.00000000000000	18.87158300000000	0.00000000000000	0.00000000000000	0.00000000000000	0.00000000000000	
7.83331100000000	-2.17793900000000	753.09446500000001	45.33796700000000	0.19106000000000	0.00000000000000	0.12933600000000	0.00000000000000	0.00000000000000	0.00000000000000	0.00000000000000	0.00000000000000	0.00000000000000	0.00000000000000	18.93986400000000	0.00000000000000	0.00000000000000	0.00000000000000	0.00000000000000	
7.83496800000000	-2.68944000000000	753.87285199999997	45.31280600000000	0.19017600000000	0.00000000000000	0.12931400000000	0.00000000000000	0.00000000000000	0.00000000000000	0.00000000000000	0.00000000000000	0.00000000000000	0.00000000000000	19.00977600000000	0.00000000000000	0.00000000000000	0.00000000000000	0.00000000000000	
7.83663200000000	-3.20480500000000	754.64786600000002	45.28784900000000	0.18930700000000	0.00000000000000	0.12929100000000	0.00000000000000	0.00000000000000	0.00000000000000	0.00000000000000	0.00000000000000	0.00000000000000	0.00000000000000	19.08124700000000	0.00000000000000	0.00000000000000	0.00000000000000	0.00000000000000	
7.83829900000000	-3.72372700000000	755.41987600000004	45.26316700000000	0.18845300000000	0.00000000000000	0.12926800000000	0.00000000000000	0.00000000000000	0.00000000000000	0.00000000000000	0.00000000000000	0.00000000000000	0.00000000000000	19.15420300000000	0.00000000000000	0.00000000000000	0.00000000000000	0.00000000000000	
7.83996400000000	-4.24589900000000	756.18926399999998	45.23884300000000	0.18761300000000	0.00000000000000	0.12924500000000	0.00000000000000	0.00000000000000	0.00000000000000	0.00000000000000	0.00000000000000	0.00000000000000	0.00000000000000	19.22856700000000	0.00000000000000	0.00000000000000	0.00000000000000	0.00000000000000	
